# xmcd
#
# Track frame offsets: 
#        150
#        13238
#        33823
#        47925
#        66038
#        83588
#        102900
#        118688
#        137988
#        159225
#        178650
#        200925
#
# Disc length: 2895 seconds
#
# Revision: 2
# Processed by: cddbd v1.5.2PL0 Copyright (c) Steve Scherf et al.
# Submitted via: ExactAudioCopyFreeDBPlugin 1.0
#
DISCID=a30b4d0c
DTITLE=Two Bones and A Pick - Two Bones and A Pick
DYEAR=1993
DGENRE=Blues
TTITLE0=Jerk
TTITLE1=I'm Sorry
TTITLE2=Mailbox Blues
TTITLE3=Chasin' A Dollar
TTITLE4=Rage On
TTITLE5=Just You and I (for Bugz)
TTITLE6=I'm The One
TTITLE7=Keep On Lovin' Me
TTITLE8=Daddy's Home
TTITLE9=Just Like Candy
TTITLE10=Worried Heartache Blues
TTITLE11=Wingin' It
EXTD=
EXTT0=
EXTT1=
EXTT2=
EXTT3=
EXTT4=
EXTT5=
EXTT6=
EXTT7=
EXTT8=
EXTT9=
EXTT10=
EXTT11=
PLAYORDER=
